<?xml version="1.0" encoding="UTF-8" standalone="no"?>
<!DOCTYPE svg PUBLIC "-//W3C//DTD SVG 1.1//EN"
 "http://www.w3.org/Graphics/SVG/1.1/DTD/svg11.dtd">
<!-- Generated by graphviz version 12.2.1 (20241206.2353)
 -->
<!-- Title: G Pages: 1 -->
<svg width="1476pt" height="1293pt"
 viewBox="0.00 0.00 1475.81 1293.05" xmlns="http://www.w3.org/2000/svg" xmlns:xlink="http://www.w3.org/1999/xlink">
<g id="graph0" class="graph" transform="scale(1 1) rotate(0) translate(4 1289.05)">
<title>G</title><style>.edge>path:hover{stroke-width:8}</style>
<polygon fill="white" stroke="none" points="-4,4 -4,-1289.05 1471.81,-1289.05 1471.81,4 -4,4"/>
<!-- main_py -->
<g id="node1" class="node">
<title>main_py</title><style>.edge>path:hover{stroke-width:8}</style>
<ellipse fill="#633535" stroke="black" cx="918.27" cy="-18" rx="30.37" ry="18"/>
<text text-anchor="middle" x="918.27" y="-14.5" font-family="Helvetica,sans-Serif" font-size="10.00" fill="#ffffff">main.py</text>
</g>
<!-- src -->
<g id="node2" class="node">
<title>src</title><style>.edge>path:hover{stroke-width:8}</style>
<ellipse fill="#10f9f9" stroke="black" cx="774.27" cy="-131.63" rx="27" ry="18"/>
<text text-anchor="middle" x="774.27" y="-128.13" font-family="Helvetica,sans-Serif" font-size="10.00" fill="#000000">src</text>
</g>
<!-- src&#45;&gt;main_py -->
<g id="edge1" class="edge">
<title>src&#45;&gt;main_py</title><style>.edge>path:hover{stroke-width:8}</style>
<path fill="none" stroke="black" d="M918.27,-72C920.98,-64.3 921.82,-55.58 921.75,-47.46"/>
<polygon fill="#10f9f9" stroke="black" points="925.25,-47.49 921.2,-37.71 918.27,-47.89 925.25,-47.49"/>
<path fill="none" stroke="black" d="M792.9,-118.38C798.36,-115.08 804.44,-111.68 810.27,-109 856.23,-87.85 901.43,-120.71 918.27,-73"/>
</g>
<!-- src_pyVertexModel -->
<g id="node3" class="node">
<title>src_pyVertexModel</title><style>.edge>path:hover{stroke-width:8}</style>
<ellipse fill="#10f9f9" stroke="black" cx="876.27" cy="-131.63" rx="56.92" ry="22.63"/>
<text text-anchor="middle" x="876.27" y="-134.13" font-family="Helvetica,sans-Serif" font-size="10.00" fill="#000000">src.</text>
<text text-anchor="middle" x="876.27" y="-122.13" font-family="Helvetica,sans-Serif" font-size="10.00" fill="#000000">pyVertexModel</text>
</g>
<!-- src_pyVertexModel&#45;&gt;main_py -->
<g id="edge2" class="edge">
<title>src_pyVertexModel&#45;&gt;main_py</title><style>.edge>path:hover{stroke-width:8}</style>
<path fill="none" stroke="black" d="M895.92,-109.92C904.42,-99.64 913.49,-86.54 918.27,-73"/>
</g>
<!-- src_pyVertexModel_algorithm -->
<g id="node4" class="node">
<title>src_pyVertexModel_algorithm</title><style>.edge>path:hover{stroke-width:8}</style>
<ellipse fill="#22e7e7" stroke="black" cx="764.27" cy="-862.86" rx="59.04" ry="31.11"/>
<text text-anchor="middle" x="764.27" y="-871.36" font-family="Helvetica,sans-Serif" font-size="10.00" fill="#000000">src.</text>
<text text-anchor="middle" x="764.27" y="-859.36" font-family="Helvetica,sans-Serif" font-size="10.00" fill="#000000">pyVertexModel.</text>
<text text-anchor="middle" x="764.27" y="-847.36" font-family="Helvetica,sans-Serif" font-size="10.00" fill="#000000">algorithm</text>
</g>
<!-- src_pyVertexModel_algorithm&#45;&gt;main_py -->
<g id="edge3" class="edge">
<title>src_pyVertexModel_algorithm&#45;&gt;main_py</title><style>.edge>path:hover{stroke-width:8}</style>
<path fill="none" stroke="black" d="M768.14,-831.35C776.42,-770.59 798.33,-630.7 837.27,-518.87 849.44,-483.92 870.48,-481.09 874.27,-444.27"/>
<path fill="none" stroke="black" d="M874.27,-442.27C874.19,-375.73 764.99,-394.66 776.27,-329.08"/>
</g>
<!-- src_pyVertexModel_analysis_analyse_simulation -->
<g id="node8" class="node">
<title>src_pyVertexModel_analysis_analyse_simulation</title><style>.edge>path:hover{stroke-width:8}</style>
<ellipse fill="#3d8f8f" stroke="black" cx="874.27" cy="-328.08" rx="70.18" ry="39.6"/>
<text text-anchor="middle" x="874.27" y="-342.58" font-family="Helvetica,sans-Serif" font-size="10.00" fill="#ffffff">src.</text>
<text text-anchor="middle" x="874.27" y="-330.58" font-family="Helvetica,sans-Serif" font-size="10.00" fill="#ffffff">pyVertexModel.</text>
<text text-anchor="middle" x="874.27" y="-318.58" font-family="Helvetica,sans-Serif" font-size="10.00" fill="#ffffff">analysis.</text>
<text text-anchor="middle" x="874.27" y="-306.58" font-family="Helvetica,sans-Serif" font-size="10.00" fill="#ffffff">analyse_simulation</text>
</g>
<!-- src_pyVertexModel_algorithm&#45;&gt;src_pyVertexModel_analysis_analyse_simulation -->
<g id="edge4" class="edge">
<title>src_pyVertexModel_algorithm&#45;&gt;src_pyVertexModel_analysis_analyse_simulation</title><style>.edge>path:hover{stroke-width:8}</style>
<path fill="none" stroke="black" d="M874.27,-442.27C876.37,-421.78 876.75,-399.09 876.47,-379.43"/>
<polygon fill="#22e7e7" stroke="black" points="879.97,-379.38 876.26,-369.46 872.97,-379.53 879.97,-379.38"/>
</g>
<!-- src_pyVertexModel_mesh_remodelling_remodelling -->
<g id="node20" class="node">
<title>src_pyVertexModel_mesh_remodelling_remodelling</title><style>.edge>path:hover{stroke-width:8}</style>
<ellipse fill="#287a7a" stroke="black" cx="976.27" cy="-710.67" rx="69.12" ry="39.6"/>
<text text-anchor="middle" x="976.27" y="-725.17" font-family="Helvetica,sans-Serif" font-size="10.00" fill="#ffffff">src.</text>
<text text-anchor="middle" x="976.27" y="-713.17" font-family="Helvetica,sans-Serif" font-size="10.00" fill="#ffffff">pyVertexModel.</text>
<text text-anchor="middle" x="976.27" y="-701.17" font-family="Helvetica,sans-Serif" font-size="10.00" fill="#ffffff">mesh_remodelling.</text>
<text text-anchor="middle" x="976.27" y="-689.17" font-family="Helvetica,sans-Serif" font-size="10.00" fill="#ffffff">remodelling</text>
</g>
<!-- src_pyVertexModel_algorithm&#45;&gt;src_pyVertexModel_mesh_remodelling_remodelling -->
<g id="edge5" class="edge">
<title>src_pyVertexModel_algorithm&#45;&gt;src_pyVertexModel_mesh_remodelling_remodelling</title><style>.edge>path:hover{stroke-width:8}</style>
<path fill="none" stroke="black" d="M798.8,-837.4C832.8,-813.31 885.16,-776.21 924.2,-748.55"/>
<polygon fill="#22e7e7" stroke="black" points="925.95,-751.6 932.09,-742.97 921.9,-745.89 925.95,-751.6"/>
</g>
<!-- src_pyVertexModel_algorithm_vertexModel -->
<g id="node5" class="node">
<title>src_pyVertexModel_algorithm_vertexModel</title><style>.edge>path:hover{stroke-width:8}</style>
<ellipse fill="#267373" stroke="black" cx="976.27" cy="-558.47" rx="59.04" ry="39.6"/>
<text text-anchor="middle" x="976.27" y="-572.97" font-family="Helvetica,sans-Serif" font-size="10.00" fill="#ffffff">src.</text>
<text text-anchor="middle" x="976.27" y="-560.97" font-family="Helvetica,sans-Serif" font-size="10.00" fill="#ffffff">pyVertexModel.</text>
<text text-anchor="middle" x="976.27" y="-548.97" font-family="Helvetica,sans-Serif" font-size="10.00" fill="#ffffff">algorithm.</text>
<text text-anchor="middle" x="976.27" y="-536.97" font-family="Helvetica,sans-Serif" font-size="10.00" fill="#ffffff">vertexModel</text>
</g>
<!-- src_pyVertexModel_algorithm_vertexModelVoronoiFromTimeImage -->
<g id="node6" class="node">
<title>src_pyVertexModel_algorithm_vertexModelVoronoiFromTimeImage</title><style>.edge>path:hover{stroke-width:8}</style>
<ellipse fill="#2e6b6b" stroke="black" cx="1062.27" cy="-443.27" rx="122.15" ry="39.6"/>
<text text-anchor="middle" x="1062.27" y="-457.77" font-family="Helvetica,sans-Serif" font-size="10.00" fill="#ffffff">src.</text>
<text text-anchor="middle" x="1062.27" y="-445.77" font-family="Helvetica,sans-Serif" font-size="10.00" fill="#ffffff">pyVertexModel.</text>
<text text-anchor="middle" x="1062.27" y="-433.77" font-family="Helvetica,sans-Serif" font-size="10.00" fill="#ffffff">algorithm.</text>
<text text-anchor="middle" x="1062.27" y="-421.77" font-family="Helvetica,sans-Serif" font-size="10.00" fill="#ffffff">vertexModelVoronoiFromTimeImage</text>
</g>
<!-- src_pyVertexModel_algorithm_vertexModel&#45;&gt;src_pyVertexModel_algorithm_vertexModelVoronoiFromTimeImage -->
<g id="edge6" class="edge">
<title>src_pyVertexModel_algorithm_vertexModel&#45;&gt;src_pyVertexModel_algorithm_vertexModelVoronoiFromTimeImage</title><style>.edge>path:hover{stroke-width:8}</style>
<path fill="none" stroke="black" d="M1002.77,-522.58C1010.33,-512.64 1018.69,-501.63 1026.69,-491.1"/>
<polygon fill="#267373" stroke="black" points="1029.43,-493.28 1032.69,-483.2 1023.86,-489.05 1029.43,-493.28"/>
</g>
<!-- src_pyVertexModel_algorithm_vertexModel&#45;&gt;src_pyVertexModel_analysis_analyse_simulation -->
<g id="edge7" class="edge">
<title>src_pyVertexModel_algorithm_vertexModel&#45;&gt;src_pyVertexModel_analysis_analyse_simulation</title><style>.edge>path:hover{stroke-width:8}</style>
<path fill="none" stroke="black" d="M948.54,-523.23C933.54,-501.96 917.11,-473.22 912.27,-444.27"/>
</g>
<!-- src_pyVertexModel_algorithm_vertexModelVoronoiFromTimeImage&#45;&gt;main_py -->
<g id="edge8" class="edge">
<title>src_pyVertexModel_algorithm_vertexModelVoronoiFromTimeImage&#45;&gt;main_py</title><style>.edge>path:hover{stroke-width:8}</style>
<path fill="none" stroke="black" d="M1164.87,-421.34C1216.42,-404.77 1265.14,-376.32 1250.27,-329.08"/>
<path fill="none" stroke="black" d="M1250.27,-327.08C1201.6,-172.46 1026.41,-344.93 893.27,-252.48 880.27,-243.45 873.83,-238.19 874.27,-222.37"/>
</g>
<!-- src_pyVertexModel_analysis -->
<g id="node7" class="node">
<title>src_pyVertexModel_analysis</title><style>.edge>path:hover{stroke-width:8}</style>
<ellipse fill="#53b6b6" stroke="black" cx="961.27" cy="-221.37" rx="59.04" ry="31.11"/>
<text text-anchor="middle" x="961.27" y="-229.87" font-family="Helvetica,sans-Serif" font-size="10.00" fill="#000000">src.</text>
<text text-anchor="middle" x="961.27" y="-217.87" font-family="Helvetica,sans-Serif" font-size="10.00" fill="#000000">pyVertexModel.</text>
<text text-anchor="middle" x="961.27" y="-205.87" font-family="Helvetica,sans-Serif" font-size="10.00" fill="#000000">analysis</text>
</g>
<!-- src_pyVertexModel_analysis&#45;&gt;main_py -->
<g id="edge9" class="edge">
<title>src_pyVertexModel_analysis&#45;&gt;main_py</title><style>.edge>path:hover{stroke-width:8}</style>
<path fill="none" stroke="black" d="M962.59,-189.85C962.99,-172.96 962.95,-151.59 961.27,-132.63"/>
</g>
<!-- src_pyVertexModel_analysis_analyse_simulation&#45;&gt;main_py -->
<g id="edge10" class="edge">
<title>src_pyVertexModel_analysis_analyse_simulation&#45;&gt;main_py</title><style>.edge>path:hover{stroke-width:8}</style>
<path fill="none" stroke="black" d="M873.76,-288.28C873.63,-268.54 873.67,-244.17 874.27,-222.37"/>
</g>
<!-- src_pyVertexModel_geometry -->
<g id="node9" class="node">
<title>src_pyVertexModel_geometry</title><style>.edge>path:hover{stroke-width:8}</style>
<ellipse fill="#10f9f9" stroke="black" cx="829.27" cy="-1093.25" rx="59.04" ry="31.11"/>
<text text-anchor="middle" x="829.27" y="-1101.75" font-family="Helvetica,sans-Serif" font-size="10.00" fill="#000000">src.</text>
<text text-anchor="middle" x="829.27" y="-1089.75" font-family="Helvetica,sans-Serif" font-size="10.00" fill="#000000">pyVertexModel.</text>
<text text-anchor="middle" x="829.27" y="-1077.75" font-family="Helvetica,sans-Serif" font-size="10.00" fill="#000000">geometry</text>
</g>
<!-- src_pyVertexModel_geometry&#45;&gt;src_pyVertexModel_algorithm_vertexModel -->
<g id="edge11" class="edge">
<title>src_pyVertexModel_geometry&#45;&gt;src_pyVertexModel_algorithm_vertexModel</title><style>.edge>path:hover{stroke-width:8}</style>
<path fill="none" stroke="black" d="M851.27,-861.86C835.68,-795.77 861.11,-777.1 879.27,-711.67"/>
<path fill="none" stroke="black" d="M879.27,-709.67C884.31,-691.22 884.58,-684.42 898.27,-671.07 925.6,-644.41 976.77,-673.25 976.27,-635.07"/>
<path fill="none" stroke="black" d="M976.27,-634.07C976.16,-626.15 976.11,-617.75 976.09,-609.56"/>
<polygon fill="#10f9f9" stroke="black" points="979.59,-609.7 976.08,-599.7 972.59,-609.71 979.59,-609.7"/>
</g>
<!-- src_pyVertexModel_geometry&#45;&gt;src_pyVertexModel_algorithm_vertexModelVoronoiFromTimeImage -->
<g id="edge12" class="edge">
<title>src_pyVertexModel_geometry&#45;&gt;src_pyVertexModel_algorithm_vertexModelVoronoiFromTimeImage</title><style>.edge>path:hover{stroke-width:8}</style>
<path fill="none" stroke="black" d="M889.27,-557.47C903,-544.16 894.7,-532.35 908.27,-518.87 925.28,-501.97 946.87,-488.31 968.46,-477.53"/>
<polygon fill="#10f9f9" stroke="black" points="969.84,-480.75 977.34,-473.28 966.81,-474.44 969.84,-480.75"/>
<path fill="none" stroke="black" d="M851.27,-977.06C828.76,-932.07 862.64,-912.87 851.27,-863.86"/>
<path fill="none" stroke="black" d="M851.27,-861.86C820.65,-729.91 792.01,-653.75 889.27,-559.47"/>
</g>
<!-- src_pyVertexModel_Kg_kgContractility -->
<g id="node15" class="node">
<title>src_pyVertexModel_Kg_kgContractility</title><style>.edge>path:hover{stroke-width:8}</style>
<ellipse fill="#3d8f8f" stroke="black" cx="452.27" cy="-862.86" rx="59.04" ry="39.6"/>
<text text-anchor="middle" x="452.27" y="-877.36" font-family="Helvetica,sans-Serif" font-size="10.00" fill="#ffffff">src.</text>
<text text-anchor="middle" x="452.27" y="-865.36" font-family="Helvetica,sans-Serif" font-size="10.00" fill="#ffffff">pyVertexModel.</text>
<text text-anchor="middle" x="452.27" y="-853.36" font-family="Helvetica,sans-Serif" font-size="10.00" fill="#ffffff">Kg.</text>
<text text-anchor="middle" x="452.27" y="-841.36" font-family="Helvetica,sans-Serif" font-size="10.00" fill="#ffffff">kgContractility</text>
</g>
<!-- src_pyVertexModel_geometry&#45;&gt;src_pyVertexModel_Kg_kgContractility -->
<g id="edge13" class="edge">
<title>src_pyVertexModel_geometry&#45;&gt;src_pyVertexModel_Kg_kgContractility</title><style>.edge>path:hover{stroke-width:8}</style>
<path fill="none" stroke="black" d="M851.27,-977.06C784.59,-841.8 660.92,-956.85 520.27,-902.46 515.23,-900.51 510.12,-898.24 505.07,-895.79"/>
<polygon fill="#10f9f9" stroke="black" points="506.7,-892.69 496.21,-891.24 503.51,-898.92 506.7,-892.69"/>
</g>
<!-- src_pyVertexModel_Kg_kgSurfaceCellBasedAdhesion -->
<g id="node16" class="node">
<title>src_pyVertexModel_Kg_kgSurfaceCellBasedAdhesion</title><style>.edge>path:hover{stroke-width:8}</style>
<ellipse fill="#3d8f8f" stroke="black" cx="272.27" cy="-862.86" rx="103.06" ry="39.6"/>
<text text-anchor="middle" x="272.27" y="-877.36" font-family="Helvetica,sans-Serif" font-size="10.00" fill="#ffffff">src.</text>
<text text-anchor="middle" x="272.27" y="-865.36" font-family="Helvetica,sans-Serif" font-size="10.00" fill="#ffffff">pyVertexModel.</text>
<text text-anchor="middle" x="272.27" y="-853.36" font-family="Helvetica,sans-Serif" font-size="10.00" fill="#ffffff">Kg.</text>
<text text-anchor="middle" x="272.27" y="-841.36" font-family="Helvetica,sans-Serif" font-size="10.00" fill="#ffffff">kgSurfaceCellBasedAdhesion</text>
</g>
<!-- src_pyVertexModel_geometry&#45;&gt;src_pyVertexModel_Kg_kgSurfaceCellBasedAdhesion -->
<g id="edge14" class="edge">
<title>src_pyVertexModel_geometry&#45;&gt;src_pyVertexModel_Kg_kgSurfaceCellBasedAdhesion</title><style>.edge>path:hover{stroke-width:8}</style>
<path fill="none" stroke="black" d="M851.27,-977.06C804.8,-882.8 486.22,-927.97 384.27,-902.46 375.16,-900.18 365.74,-897.49 356.41,-894.6"/>
<polygon fill="#10f9f9" stroke="black" points="357.55,-891.29 346.96,-891.6 355.43,-897.96 357.55,-891.29"/>
<path fill="none" stroke="black" d="M844.7,-1063C854.97,-1039.31 864.37,-1005.63 851.27,-979.06"/>
</g>
<!-- src_pyVertexModel_Kg_kgTriAREnergyBarrier -->
<g id="node17" class="node">
<title>src_pyVertexModel_Kg_kgTriAREnergyBarrier</title><style>.edge>path:hover{stroke-width:8}</style>
<ellipse fill="#3d8f8f" stroke="black" cx="608.27" cy="-862.86" rx="78.67" ry="39.6"/>
<text text-anchor="middle" x="608.27" y="-877.36" font-family="Helvetica,sans-Serif" font-size="10.00" fill="#ffffff">src.</text>
<text text-anchor="middle" x="608.27" y="-865.36" font-family="Helvetica,sans-Serif" font-size="10.00" fill="#ffffff">pyVertexModel.</text>
<text text-anchor="middle" x="608.27" y="-853.36" font-family="Helvetica,sans-Serif" font-size="10.00" fill="#ffffff">Kg.</text>
<text text-anchor="middle" x="608.27" y="-841.36" font-family="Helvetica,sans-Serif" font-size="10.00" fill="#ffffff">kgTriAREnergyBarrier</text>
</g>
<!-- src_pyVertexModel_geometry&#45;&gt;src_pyVertexModel_Kg_kgTriAREnergyBarrier -->
<g id="edge15" class="edge">
<title>src_pyVertexModel_geometry&#45;&gt;src_pyVertexModel_Kg_kgTriAREnergyBarrier</title><style>.edge>path:hover{stroke-width:8}</style>
<path fill="none" stroke="black" d="M851.27,-977.06C849.13,-972.73 747.78,-926.5 676.66,-894.48"/>
<polygon fill="#10f9f9" stroke="black" points="678.34,-891.4 667.78,-890.49 675.47,-897.78 678.34,-891.4"/>
</g>
<!-- src_pyVertexModel_geometry&#45;&gt;src_pyVertexModel_mesh_remodelling_remodelling -->
<g id="edge16" class="edge">
<title>src_pyVertexModel_geometry&#45;&gt;src_pyVertexModel_mesh_remodelling_remodelling</title><style>.edge>path:hover{stroke-width:8}</style>
<path fill="none" stroke="black" d="M851.27,-977.06C840.95,-956.13 909.44,-829.19 949.21,-758.73"/>
<polygon fill="#10f9f9" stroke="black" points="952.23,-760.5 954.11,-750.07 946.14,-757.05 952.23,-760.5"/>
</g>
<!-- src_pyVertexModel_geometry_cell -->
<g id="node10" class="node">
<title>src_pyVertexModel_geometry_cell</title><style>.edge>path:hover{stroke-width:8}</style>
<ellipse fill="#28a3a3" stroke="black" cx="1128.27" cy="-978.06" rx="59.04" ry="39.6"/>
<text text-anchor="middle" x="1128.27" y="-992.56" font-family="Helvetica,sans-Serif" font-size="10.00" fill="#ffffff">src.</text>
<text text-anchor="middle" x="1128.27" y="-980.56" font-family="Helvetica,sans-Serif" font-size="10.00" fill="#ffffff">pyVertexModel.</text>
<text text-anchor="middle" x="1128.27" y="-968.56" font-family="Helvetica,sans-Serif" font-size="10.00" fill="#ffffff">geometry.</text>
<text text-anchor="middle" x="1128.27" y="-956.56" font-family="Helvetica,sans-Serif" font-size="10.00" fill="#ffffff">cell</text>
</g>
<!-- src_pyVertexModel_geometry_cell&#45;&gt;src_pyVertexModel_algorithm_vertexModelVoronoiFromTimeImage -->
<g id="edge17" class="edge">
<title>src_pyVertexModel_geometry_cell&#45;&gt;src_pyVertexModel_algorithm_vertexModelVoronoiFromTimeImage</title><style>.edge>path:hover{stroke-width:8}</style>
<path fill="none" stroke="black" d="M1329.27,-786.26C1328.74,-743.72 1267.59,-754.18 1269.27,-711.67"/>
<path fill="none" stroke="black" d="M1169.56,-949.26C1228.55,-908.01 1329.81,-830.82 1329.27,-787.26"/>
</g>
<!-- src_pyVertexModel_geometry_geo -->
<g id="node12" class="node">
<title>src_pyVertexModel_geometry_geo</title><style>.edge>path:hover{stroke-width:8}</style>
<ellipse fill="#228b8b" stroke="black" cx="1128.27" cy="-862.86" rx="59.04" ry="39.6"/>
<text text-anchor="middle" x="1128.27" y="-877.36" font-family="Helvetica,sans-Serif" font-size="10.00" fill="#ffffff">src.</text>
<text text-anchor="middle" x="1128.27" y="-865.36" font-family="Helvetica,sans-Serif" font-size="10.00" fill="#ffffff">pyVertexModel.</text>
<text text-anchor="middle" x="1128.27" y="-853.36" font-family="Helvetica,sans-Serif" font-size="10.00" fill="#ffffff">geometry.</text>
<text text-anchor="middle" x="1128.27" y="-841.36" font-family="Helvetica,sans-Serif" font-size="10.00" fill="#ffffff">geo</text>
</g>
<!-- src_pyVertexModel_geometry_cell&#45;&gt;src_pyVertexModel_geometry_geo -->
<g id="edge18" class="edge">
<title>src_pyVertexModel_geometry_cell&#45;&gt;src_pyVertexModel_geometry_geo</title><style>.edge>path:hover{stroke-width:8}</style>
<path fill="none" stroke="black" d="M1128.27,-938.1C1128.27,-930.45 1128.27,-922.33 1128.27,-914.37"/>
<polygon fill="#28a3a3" stroke="black" points="1131.77,-914.4 1128.27,-904.4 1124.77,-914.4 1131.77,-914.4"/>
</g>
<!-- src_pyVertexModel_geometry_cell&#45;&gt;src_pyVertexModel_mesh_remodelling_remodelling -->
<g id="edge19" class="edge">
<title>src_pyVertexModel_geometry_cell&#45;&gt;src_pyVertexModel_mesh_remodelling_remodelling</title><style>.edge>path:hover{stroke-width:8}</style>
<path fill="none" stroke="black" d="M1081.73,-953.48C1050.57,-934.36 1013.46,-904.02 1003.27,-863.86"/>
</g>
<!-- src_pyVertexModel_geometry_face -->
<g id="node11" class="node">
<title>src_pyVertexModel_geometry_face</title><style>.edge>path:hover{stroke-width:8}</style>
<ellipse fill="#05d1d1" stroke="black" cx="1003.27" cy="-1093.25" rx="59.04" ry="39.6"/>
<text text-anchor="middle" x="1003.27" y="-1107.75" font-family="Helvetica,sans-Serif" font-size="10.00" fill="#000000">src.</text>
<text text-anchor="middle" x="1003.27" y="-1095.75" font-family="Helvetica,sans-Serif" font-size="10.00" fill="#000000">pyVertexModel.</text>
<text text-anchor="middle" x="1003.27" y="-1083.75" font-family="Helvetica,sans-Serif" font-size="10.00" fill="#000000">geometry.</text>
<text text-anchor="middle" x="1003.27" y="-1071.75" font-family="Helvetica,sans-Serif" font-size="10.00" fill="#000000">face</text>
</g>
<!-- src_pyVertexModel_geometry_face&#45;&gt;src_pyVertexModel_algorithm_vertexModelVoronoiFromTimeImage -->
<g id="edge20" class="edge">
<title>src_pyVertexModel_geometry_face&#45;&gt;src_pyVertexModel_algorithm_vertexModelVoronoiFromTimeImage</title><style>.edge>path:hover{stroke-width:8}</style>
<path fill="none" stroke="black" d="M1003.27,-977.06C997.24,-967.68 1056.92,-793.65 1065.27,-786.26 1137.56,-722.29 1265.46,-808.13 1269.27,-711.67"/>
<path fill="none" stroke="black" d="M1269.27,-709.67C1269.43,-690.55 1260.07,-687.49 1250.27,-671.07 1229.85,-636.86 1220.35,-631.22 1198.27,-598.07 1187.07,-581.26 1184.09,-577.12 1174.27,-559.47"/>
</g>
<!-- src_pyVertexModel_geometry_face&#45;&gt;src_pyVertexModel_geometry_cell -->
<g id="edge21" class="edge">
<title>src_pyVertexModel_geometry_face&#45;&gt;src_pyVertexModel_geometry_cell</title><style>.edge>path:hover{stroke-width:8}</style>
<path fill="none" stroke="black" d="M1037.75,-1061.02C1052.39,-1047.77 1069.6,-1032.18 1085.07,-1018.17"/>
<polygon fill="#05d1d1" stroke="black" points="1087.27,-1020.9 1092.34,-1011.6 1082.57,-1015.71 1087.27,-1020.9"/>
</g>
<!-- src_pyVertexModel_geometry_face&#45;&gt;src_pyVertexModel_geometry_geo -->
<g id="edge22" class="edge">
<title>src_pyVertexModel_geometry_face&#45;&gt;src_pyVertexModel_geometry_geo</title><style>.edge>path:hover{stroke-width:8}</style>
<path fill="none" stroke="black" d="M1003.27,-977.06C991.36,-958.53 1036.61,-922.69 1075.96,-896.28"/>
<polygon fill="#05d1d1" stroke="black" points="1077.6,-899.39 1084.01,-890.96 1073.74,-893.55 1077.6,-899.39"/>
</g>
<!-- src_pyVertexModel_geometry_face&#45;&gt;src_pyVertexModel_Kg_kgContractility -->
<g id="edge23" class="edge">
<title>src_pyVertexModel_geometry_face&#45;&gt;src_pyVertexModel_Kg_kgContractility</title><style>.edge>path:hover{stroke-width:8}</style>
<path fill="none" stroke="black" d="M1003.27,-977.06C992.34,-960.06 996.53,-948.96 979.27,-938.46 891.85,-885.3 618.09,-932.43 520.27,-902.46 514.89,-900.81 509.47,-898.69 504.16,-896.28"/>
<polygon fill="#05d1d1" stroke="black" points="506.02,-893.29 495.5,-892.03 502.94,-899.58 506.02,-893.29"/>
</g>
<!-- src_pyVertexModel_geometry_face&#45;&gt;src_pyVertexModel_Kg_kgSurfaceCellBasedAdhesion -->
<g id="edge24" class="edge">
<title>src_pyVertexModel_geometry_face&#45;&gt;src_pyVertexModel_Kg_kgSurfaceCellBasedAdhesion</title><style>.edge>path:hover{stroke-width:8}</style>
<path fill="none" stroke="black" d="M1003.27,-977.06C992.34,-960.06 996.62,-948.8 979.27,-938.46 865.48,-870.64 514.19,-928.28 384.27,-902.46 374.49,-900.52 364.4,-897.93 354.47,-895"/>
<polygon fill="#05d1d1" stroke="black" points="355.8,-891.75 345.22,-892.16 353.75,-898.44 355.8,-891.75"/>
<path fill="none" stroke="black" d="M1013.1,-1053.93C1016.85,-1030.52 1017.35,-1000.96 1003.27,-979.06"/>
</g>
<!-- src_pyVertexModel_geometry_face&#45;&gt;src_pyVertexModel_Kg_kgTriAREnergyBarrier -->
<g id="edge25" class="edge">
<title>src_pyVertexModel_geometry_face&#45;&gt;src_pyVertexModel_Kg_kgTriAREnergyBarrier</title><style>.edge>path:hover{stroke-width:8}</style>
<path fill="none" stroke="black" d="M1003.27,-977.06C992.34,-960.06 996.27,-949.37 979.27,-938.46 872.56,-869.98 818.47,-936.27 696.27,-902.46 689.22,-900.51 682.01,-898.1 674.89,-895.44"/>
<polygon fill="#05d1d1" stroke="black" points="676.19,-892.19 665.61,-891.79 673.63,-898.7 676.19,-892.19"/>
</g>
<!-- src_pyVertexModel_geometry_face&#45;&gt;src_pyVertexModel_mesh_remodelling_remodelling -->
<g id="edge26" class="edge">
<title>src_pyVertexModel_geometry_face&#45;&gt;src_pyVertexModel_mesh_remodelling_remodelling</title><style>.edge>path:hover{stroke-width:8}</style>
<path fill="none" stroke="black" d="M1003.27,-861.86C994.89,-828.88 988.13,-791.18 983.46,-761.8"/>
<polygon fill="#05d1d1" stroke="black" points="986.94,-761.41 981.95,-752.07 980.03,-762.49 986.94,-761.41"/>
<path fill="none" stroke="black" d="M1003.27,-977.06C976.06,-934.74 1020.53,-911.12 1003.27,-863.86"/>
</g>
<!-- src_pyVertexModel_geometry_geo&#45;&gt;src_pyVertexModel_algorithm_vertexModel -->
<g id="edge27" class="edge">
<title>src_pyVertexModel_geometry_geo&#45;&gt;src_pyVertexModel_algorithm_vertexModel</title><style>.edge>path:hover{stroke-width:8}</style>
<path fill="none" stroke="black" d="M1079.27,-709.67C1062.75,-697.63 1069.71,-684.46 1054.27,-671.07 1025.42,-646.06 976.77,-673.25 976.27,-635.07"/>
<path fill="none" stroke="black" d="M1079.27,-786.26C1061,-758.6 1106.07,-731.18 1079.27,-711.67"/>
</g>
<!-- src_pyVertexModel_geometry_geo&#45;&gt;src_pyVertexModel_algorithm_vertexModelVoronoiFromTimeImage -->
<g id="edge28" class="edge">
<title>src_pyVertexModel_geometry_geo&#45;&gt;src_pyVertexModel_algorithm_vertexModelVoronoiFromTimeImage</title><style>.edge>path:hover{stroke-width:8}</style>
<path fill="none" stroke="black" d="M1173.99,-837.52C1214.79,-812.14 1268.26,-768.17 1269.27,-711.67"/>
</g>
<!-- src_pyVertexModel_geometry_geo&#45;&gt;src_pyVertexModel_mesh_remodelling_remodelling -->
<g id="edge29" class="edge">
<title>src_pyVertexModel_geometry_geo&#45;&gt;src_pyVertexModel_mesh_remodelling_remodelling</title><style>.edge>path:hover{stroke-width:8}</style>
<path fill="none" stroke="black" d="M1079.27,-786.26C1068.39,-769.78 1052.53,-755.71 1036.51,-744.38"/>
<polygon fill="#228b8b" stroke="black" points="1038.6,-741.56 1028.35,-738.87 1034.68,-747.37 1038.6,-741.56"/>
<path fill="none" stroke="black" d="M1104.87,-826.17C1096.77,-813.84 1087.63,-799.94 1079.27,-787.26"/>
</g>
<!-- src_pyVertexModel_Kg -->
<g id="node13" class="node">
<title>src_pyVertexModel_Kg</title><style>.edge>path:hover{stroke-width:8}</style>
<ellipse fill="#10f9f9" stroke="black" cx="1340.27" cy="-1093.25" rx="59.04" ry="31.11"/>
<text text-anchor="middle" x="1340.27" y="-1101.75" font-family="Helvetica,sans-Serif" font-size="10.00" fill="#000000">src.</text>
<text text-anchor="middle" x="1340.27" y="-1089.75" font-family="Helvetica,sans-Serif" font-size="10.00" fill="#000000">pyVertexModel.</text>
<text text-anchor="middle" x="1340.27" y="-1077.75" font-family="Helvetica,sans-Serif" font-size="10.00" fill="#000000">Kg</text>
</g>
<!-- src_pyVertexModel_Kg&#45;&gt;main_py -->
<g id="edge30" class="edge">
<title>src_pyVertexModel_Kg&#45;&gt;main_py</title><style>.edge>path:hover{stroke-width:8}</style>
<path fill="none" stroke="black" d="M1405.27,-709.67C1393.33,-527.42 1305.1,-503.29 1250.27,-329.08"/>
<path fill="none" stroke="black" d="M1345.13,-1061.82C1353.97,-1006.77 1373.42,-887.02 1391.27,-786.26 1397.15,-753.05 1403.5,-745.35 1405.27,-711.67"/>
</g>
<!-- src_pyVertexModel_Kg&#45;&gt;src_pyVertexModel_algorithm_vertexModel -->
<g id="edge31" class="edge">
<title>src_pyVertexModel_Kg&#45;&gt;src_pyVertexModel_algorithm_vertexModel</title><style>.edge>path:hover{stroke-width:8}</style>
<path fill="none" stroke="black" d="M1291.27,-861.86C1268.7,-765.38 1165.95,-822.63 1098.27,-750.26 1085.21,-736.3 1094.72,-722.92 1079.27,-711.67"/>
<path fill="none" stroke="black" d="M1329,-1062.47C1324.22,-1048.94 1318.92,-1032.65 1315.27,-1017.66 1298.88,-950.44 1338.48,-914.43 1291.27,-863.86"/>
</g>
<!-- src_pyVertexModel_Kg&#45;&gt;src_pyVertexModel_geometry_geo -->
<g id="edge32" class="edge">
<title>src_pyVertexModel_Kg&#45;&gt;src_pyVertexModel_geometry_geo</title><style>.edge>path:hover{stroke-width:8}</style>
<path fill="none" stroke="black" d="M1304.54,-1068.06C1276.58,-1047.41 1238.64,-1015.37 1215.27,-979.06"/>
</g>
<!-- src_pyVertexModel_Kg_kg -->
<g id="node14" class="node">
<title>src_pyVertexModel_Kg_kg</title><style>.edge>path:hover{stroke-width:8}</style>
<ellipse fill="#16f3f3" stroke="black" cx="103.27" cy="-1093.25" rx="59.04" ry="39.6"/>
<text text-anchor="middle" x="103.27" y="-1107.75" font-family="Helvetica,sans-Serif" font-size="10.00" fill="#000000">src.</text>
<text text-anchor="middle" x="103.27" y="-1095.75" font-family="Helvetica,sans-Serif" font-size="10.00" fill="#000000">pyVertexModel.</text>
<text text-anchor="middle" x="103.27" y="-1083.75" font-family="Helvetica,sans-Serif" font-size="10.00" fill="#000000">Kg.</text>
<text text-anchor="middle" x="103.27" y="-1071.75" font-family="Helvetica,sans-Serif" font-size="10.00" fill="#000000">kg</text>
</g>
<!-- src_pyVertexModel_Kg_kg&#45;&gt;src_pyVertexModel_algorithm_vertexModel -->
<g id="edge33" class="edge">
<title>src_pyVertexModel_Kg_kg&#45;&gt;src_pyVertexModel_algorithm_vertexModel</title><style>.edge>path:hover{stroke-width:8}</style>
<path fill="none" stroke="black" d="M362.27,-977.06C445.13,-929.18 214.98,-980.98 160.27,-902.46 140.15,-873.58 137.4,-850.02 160.27,-823.26 194.03,-783.75 573.03,-766.88 622.27,-750.26 737.33,-711.43 859.47,-637.28 925.94,-593.74"/>
<polygon fill="#16f3f3" stroke="black" points="927.65,-596.8 934.07,-588.38 923.8,-590.96 927.65,-596.8"/>
<path fill="none" stroke="black" d="M154.98,-1073.48C208.43,-1053.22 293.52,-1018.48 362.27,-979.06"/>
</g>
<!-- src_pyVertexModel_Kg_kg&#45;&gt;src_pyVertexModel_geometry_geo -->
<g id="edge34" class="edge">
<title>src_pyVertexModel_Kg_kg&#45;&gt;src_pyVertexModel_geometry_geo</title><style>.edge>path:hover{stroke-width:8}</style>
<path fill="none" stroke="black" d="M362.27,-977.06C615.96,-830.48 731.6,-967.55 1017.27,-902.46 1033.67,-898.72 1051.03,-893.39 1067.02,-887.87"/>
<polygon fill="#16f3f3" stroke="black" points="1068.15,-891.18 1076.41,-884.55 1065.82,-884.58 1068.15,-891.18"/>
</g>
<!-- src_pyVertexModel_Kg_kg&#45;&gt;src_pyVertexModel_Kg_kgContractility -->
<g id="edge35" class="edge">
<title>src_pyVertexModel_Kg_kg&#45;&gt;src_pyVertexModel_Kg_kgContractility</title><style>.edge>path:hover{stroke-width:8}</style>
<path fill="none" stroke="black" d="M362.27,-977.06C389.4,-961.38 411.47,-934.09 426.96,-910.23"/>
<polygon fill="#16f3f3" stroke="black" points="429.84,-912.22 432.18,-901.88 423.91,-908.5 429.84,-912.22"/>
</g>
<!-- src_pyVertexModel_Kg_kg&#45;&gt;src_pyVertexModel_Kg_kgSurfaceCellBasedAdhesion -->
<g id="edge36" class="edge">
<title>src_pyVertexModel_Kg_kg&#45;&gt;src_pyVertexModel_Kg_kgSurfaceCellBasedAdhesion</title><style>.edge>path:hover{stroke-width:8}</style>
<path fill="none" stroke="black" d="M362.27,-977.06C391.68,-960.07 364.87,-929.42 333.05,-904.3"/>
<polygon fill="#16f3f3" stroke="black" points="335.26,-901.58 325.19,-898.3 331.01,-907.15 335.26,-901.58"/>
</g>
<!-- src_pyVertexModel_Kg_kg&#45;&gt;src_pyVertexModel_Kg_kgTriAREnergyBarrier -->
<g id="edge37" class="edge">
<title>src_pyVertexModel_Kg_kg&#45;&gt;src_pyVertexModel_Kg_kgTriAREnergyBarrier</title><style>.edge>path:hover{stroke-width:8}</style>
<path fill="none" stroke="black" d="M362.27,-977.06C378.74,-967.54 472.7,-924.82 539.59,-894.68"/>
<polygon fill="#16f3f3" stroke="black" points="541.02,-897.87 548.7,-890.57 538.15,-891.49 541.02,-897.87"/>
</g>
<!-- src_pyVertexModel_Kg_kgVolume -->
<g id="node18" class="node">
<title>src_pyVertexModel_Kg_kgVolume</title><style>.edge>path:hover{stroke-width:8}</style>
<ellipse fill="#439d9d" stroke="black" cx="103.27" cy="-978.06" rx="59.04" ry="39.6"/>
<text text-anchor="middle" x="103.27" y="-992.56" font-family="Helvetica,sans-Serif" font-size="10.00" fill="#000000">src.</text>
<text text-anchor="middle" x="103.27" y="-980.56" font-family="Helvetica,sans-Serif" font-size="10.00" fill="#000000">pyVertexModel.</text>
<text text-anchor="middle" x="103.27" y="-968.56" font-family="Helvetica,sans-Serif" font-size="10.00" fill="#000000">Kg.</text>
<text text-anchor="middle" x="103.27" y="-956.56" font-family="Helvetica,sans-Serif" font-size="10.00" fill="#000000">kgVolume</text>
</g>
<!-- src_pyVertexModel_Kg_kg&#45;&gt;src_pyVertexModel_Kg_kgVolume -->
<g id="edge38" class="edge">
<title>src_pyVertexModel_Kg_kg&#45;&gt;src_pyVertexModel_Kg_kgVolume</title><style>.edge>path:hover{stroke-width:8}</style>
<path fill="none" stroke="black" d="M103.27,-1053.3C103.27,-1045.65 103.27,-1037.52 103.27,-1029.56"/>
<polygon fill="#16f3f3" stroke="black" points="106.77,-1029.6 103.27,-1019.6 99.77,-1029.6 106.77,-1029.6"/>
</g>
<!-- src_pyVertexModel_Kg_kgContractility&#45;&gt;main_py -->
<g id="edge39" class="edge">
<title>src_pyVertexModel_Kg_kgContractility&#45;&gt;main_py</title><style>.edge>path:hover{stroke-width:8}</style>
<path fill="none" stroke="black" d="M496.09,-835.91C504.04,-831.51 512.33,-827.12 520.27,-823.26 558.27,-804.8 591.85,-826.2 608.27,-787.26"/>
<path fill="none" stroke="black" d="M608.27,-786.26C621.14,-755.71 583.48,-733.68 608.27,-711.67"/>
</g>
<!-- src_pyVertexModel_Kg_kgSurfaceCellBasedAdhesion&#45;&gt;main_py -->
<g id="edge40" class="edge">
<title>src_pyVertexModel_Kg_kgSurfaceCellBasedAdhesion&#45;&gt;main_py</title><style>.edge>path:hover{stroke-width:8}</style>
<path fill="none" stroke="black" d="M259.92,-823.14C257.84,-808.51 259.62,-793.82 272.27,-787.26"/>
</g>
<!-- src_pyVertexModel_Kg_kgTriAREnergyBarrier&#45;&gt;main_py -->
<g id="edge41" class="edge">
<title>src_pyVertexModel_Kg_kgTriAREnergyBarrier&#45;&gt;main_py</title><style>.edge>path:hover{stroke-width:8}</style>
<path fill="none" stroke="black" d="M602.58,-823.14C602.31,-811.24 603.59,-798.36 608.27,-787.26"/>
</g>
<!-- src_pyVertexModel_Kg_kgVolume&#45;&gt;main_py -->
<g id="edge42" class="edge">
<title>src_pyVertexModel_Kg_kgVolume&#45;&gt;main_py</title><style>.edge>path:hover{stroke-width:8}</style>
<path fill="none" stroke="black" d="M91.26,-938.87C86.12,-914.29 84.9,-883.41 103.27,-863.86"/>
</g>
<!-- src_pyVertexModel_mesh_remodelling -->
<g id="node19" class="node">
<title>src_pyVertexModel_mesh_remodelling</title><style>.edge>path:hover{stroke-width:8}</style>
<ellipse fill="#3bcece" stroke="black" cx="1174.27" cy="-710.67" rx="67" ry="31.11"/>
<text text-anchor="middle" x="1174.27" y="-719.17" font-family="Helvetica,sans-Serif" font-size="10.00" fill="#000000">src.</text>
<text text-anchor="middle" x="1174.27" y="-707.17" font-family="Helvetica,sans-Serif" font-size="10.00" fill="#000000">pyVertexModel.</text>
<text text-anchor="middle" x="1174.27" y="-695.17" font-family="Helvetica,sans-Serif" font-size="10.00" fill="#000000">mesh_remodelling</text>
</g>
<!-- src_pyVertexModel_mesh_remodelling&#45;&gt;src_pyVertexModel_algorithm_vertexModel -->
<g id="edge43" class="edge">
<title>src_pyVertexModel_mesh_remodelling&#45;&gt;src_pyVertexModel_algorithm_vertexModel</title><style>.edge>path:hover{stroke-width:8}</style>
<path fill="none" stroke="black" d="M1180.22,-679.23C1181.53,-665.12 1180.91,-648.54 1174.27,-635.07"/>
<path fill="none" stroke="black" d="M1174.27,-634.07C1151.42,-587.7 1093.87,-569.77 1046.66,-563.02"/>
<polygon fill="#3bcece" stroke="black" points="1047.4,-559.58 1037.03,-561.79 1046.51,-566.53 1047.4,-559.58"/>
</g>
<!-- src_pyVertexModel_mesh_remodelling&#45;&gt;src_pyVertexModel_algorithm_vertexModelVoronoiFromTimeImage -->
<g id="edge44" class="edge">
<title>src_pyVertexModel_mesh_remodelling&#45;&gt;src_pyVertexModel_algorithm_vertexModelVoronoiFromTimeImage</title><style>.edge>path:hover{stroke-width:8}</style>
<path fill="none" stroke="black" d="M1174.27,-634.07C1159.62,-604.33 1190.39,-588.44 1174.27,-559.47"/>
<path fill="none" stroke="black" d="M1174.27,-557.47C1159.79,-531.46 1137.68,-507.31 1116.92,-488.05"/>
<polygon fill="#3bcece" stroke="black" points="1119.32,-485.51 1109.56,-481.39 1114.62,-490.7 1119.32,-485.51"/>
</g>
<!-- src_pyVertexModel_mesh_remodelling_remodelling&#45;&gt;src_pyVertexModel_algorithm_vertexModel -->
<g id="edge45" class="edge">
<title>src_pyVertexModel_mesh_remodelling_remodelling&#45;&gt;src_pyVertexModel_algorithm_vertexModel</title><style>.edge>path:hover{stroke-width:8}</style>
<path fill="none" stroke="black" d="M976.46,-670.95C976.47,-659.4 976.42,-646.72 976.27,-635.07"/>
</g>
<!-- src_pyVertexModel_mesh_remodelling_remodelling&#45;&gt;src_pyVertexModel_algorithm_vertexModelVoronoiFromTimeImage -->
<g id="edge46" class="edge">
<title>src_pyVertexModel_mesh_remodelling_remodelling&#45;&gt;src_pyVertexModel_algorithm_vertexModelVoronoiFromTimeImage</title><style>.edge>path:hover{stroke-width:8}</style>
<path fill="none" stroke="black" d="M936.04,-677.97C898.61,-644.89 853.59,-593.23 889.27,-559.47"/>
</g>
<!-- src_pyVertexModel_util -->
<g id="node21" class="node">
<title>src_pyVertexModel_util</title><style>.edge>path:hover{stroke-width:8}</style>
<ellipse fill="#10f9f9" stroke="black" cx="1128.27" cy="-1245.45" rx="59.04" ry="31.11"/>
<text text-anchor="middle" x="1128.27" y="-1253.95" font-family="Helvetica,sans-Serif" font-size="10.00" fill="#000000">src.</text>
<text text-anchor="middle" x="1128.27" y="-1241.95" font-family="Helvetica,sans-Serif" font-size="10.00" fill="#000000">pyVertexModel.</text>
<text text-anchor="middle" x="1128.27" y="-1229.95" font-family="Helvetica,sans-Serif" font-size="10.00" fill="#000000">util</text>
</g>
<!-- src_pyVertexModel_util&#45;&gt;main_py -->
<g id="edge47" class="edge">
<title>src_pyVertexModel_util&#45;&gt;main_py</title><style>.edge>path:hover{stroke-width:8}</style>
<path fill="none" stroke="black" d="M961.27,-130.63C958.44,-98.8 907.63,-103.14 918.27,-73"/>
<path fill="none" stroke="black" d="M103.27,-861.86C119.54,-844.55 119.84,-835.41 140.27,-823.26 192.54,-792.19 218.27,-815.23 272.27,-787.26"/>
<path fill="none" stroke="black" d="M874.27,-220.37C875.77,-165.47 966.13,-187.33 961.27,-132.63"/>
<path fill="none" stroke="black" d="M608.27,-709.67C621.91,-697.55 615.4,-687.98 622.27,-671.07 684.95,-516.61 748.01,-493.36 776.27,-329.08"/>
<path fill="none" stroke="black" d="M776.27,-327.08C780.77,-308.5 783.46,-303.52 795.27,-288.48 823.54,-252.47 873.01,-268.13 874.27,-222.37"/>
<path fill="none" stroke="black" d="M272.27,-786.26C408.1,-715.91 503.04,-822.7 608.27,-711.67"/>
<path fill="none" stroke="black" d="M1003.27,-1168.85C905.12,-1124.67 109.94,-1210.36 35.27,-1132.85 -24.68,-1070.64 4.06,-1019.02 35.27,-938.46 51.47,-896.63 72.54,-896.55 103.27,-863.86"/>
<path fill="none" stroke="black" d="M1092.81,-1220.3C1068.41,-1204.43 1034.84,-1184.07 1003.27,-1169.85"/>
</g>
<!-- src_pyVertexModel_util&#45;&gt;src_pyVertexModel_algorithm_vertexModel -->
<g id="edge48" class="edge">
<title>src_pyVertexModel_util&#45;&gt;src_pyVertexModel_algorithm_vertexModel</title><style>.edge>path:hover{stroke-width:8}</style>
<path fill="none" stroke="black" d="M965.27,-786.26C957.6,-753.34 921.74,-774.59 898.27,-750.26 884.99,-736.51 874.22,-730.11 879.27,-711.67"/>
<path fill="none" stroke="black" d="M965.27,-977.06C968.79,-892.78 984.41,-869.42 965.27,-787.26"/>
</g>
<!-- src_pyVertexModel_util&#45;&gt;src_pyVertexModel_algorithm_vertexModelVoronoiFromTimeImage -->
<g id="edge49" class="edge">
<title>src_pyVertexModel_util&#45;&gt;src_pyVertexModel_algorithm_vertexModelVoronoiFromTimeImage</title><style>.edge>path:hover{stroke-width:8}</style>
<path fill="none" stroke="black" d="M1166.1,-1221.34C1175.76,-1215.9 1186.24,-1210.38 1196.27,-1205.85 1287.1,-1164.86 1350.4,-1213.98 1408.27,-1132.85 1428.71,-1104.2 1415.97,-1088 1408.27,-1053.66 1404.4,-1036.39 1397.37,-1034.27 1391.27,-1017.66 1354.7,-918.12 1346.04,-891.97 1329.27,-787.26"/>
</g>
<!-- src_pyVertexModel_util&#45;&gt;src_pyVertexModel_analysis_analyse_simulation -->
<g id="edge50" class="edge">
<title>src_pyVertexModel_util&#45;&gt;src_pyVertexModel_analysis_analyse_simulation</title><style>.edge>path:hover{stroke-width:8}</style>
<path fill="none" stroke="black" d="M1003.27,-1168.85C972.06,-1154.88 952.91,-1162.15 935.27,-1132.85 917.11,-1102.7 928.58,-1088.21 935.27,-1053.66 942.06,-1018.57 963.21,-1014.73 965.27,-979.06"/>
<path fill="none" stroke="black" d="M912.27,-442.27C908.63,-420.54 901.46,-397.33 894.32,-377.63"/>
<polygon fill="#10f9f9" stroke="black" points="897.68,-376.63 890.91,-368.49 891.13,-379.08 897.68,-376.63"/>
<path fill="none" stroke="black" d="M965.27,-977.06C965.66,-866.9 887.98,-858.06 865.27,-750.26 855.82,-705.41 872.71,-528.37 875.27,-518.87 884.89,-483.14 918.38,-480.78 912.27,-444.27"/>
</g>
<!-- src_pyVertexModel_util&#45;&gt;src_pyVertexModel_geometry_cell -->
<g id="edge51" class="edge">
<title>src_pyVertexModel_util&#45;&gt;src_pyVertexModel_geometry_cell</title><style>.edge>path:hover{stroke-width:8}</style>
<path fill="none" stroke="black" d="M1128.27,-1214.01C1128.27,-1168.98 1128.27,-1084.09 1128.27,-1029.62"/>
<polygon fill="#10f9f9" stroke="black" points="1131.77,-1029.66 1128.27,-1019.66 1124.77,-1029.66 1131.77,-1029.66"/>
</g>
<!-- src_pyVertexModel_util&#45;&gt;src_pyVertexModel_geometry_face -->
<g id="edge52" class="edge">
<title>src_pyVertexModel_util&#45;&gt;src_pyVertexModel_geometry_face</title><style>.edge>path:hover{stroke-width:8}</style>
<path fill="none" stroke="black" d="M1003.27,-1168.85C993.26,-1164.35 989.88,-1154.65 989.83,-1143.69"/>
<polygon fill="#10f9f9" stroke="black" points="993.3,-1144.22 990.65,-1133.96 986.32,-1143.64 993.3,-1144.22"/>
</g>
<!-- src_pyVertexModel_util&#45;&gt;src_pyVertexModel_geometry_geo -->
<g id="edge53" class="edge">
<title>src_pyVertexModel_util&#45;&gt;src_pyVertexModel_geometry_geo</title><style>.edge>path:hover{stroke-width:8}</style>
<path fill="none" stroke="black" d="M1003.27,-1168.85C972.08,-1154.81 1053.63,-1162.15 1071.27,-1132.85 1089.42,-1102.7 1076.47,-1088.47 1071.27,-1053.66 1068.8,-1037.11 1062.74,-1034.2 1060.27,-1017.66 1055.07,-982.84 1047.55,-971.28 1060.27,-938.46 1065.41,-925.18 1074.14,-912.81 1083.67,-902.12"/>
<polygon fill="#10f9f9" stroke="black" points="1086.05,-904.69 1090.38,-895.01 1080.97,-899.88 1086.05,-904.69"/>
</g>
<!-- src_pyVertexModel_util&#45;&gt;src_pyVertexModel_mesh_remodelling_remodelling -->
<g id="edge54" class="edge">
<title>src_pyVertexModel_util&#45;&gt;src_pyVertexModel_mesh_remodelling_remodelling</title><style>.edge>path:hover{stroke-width:8}</style>
<path fill="none" stroke="black" d="M965.27,-786.26C963.41,-778.29 963.11,-769.75 963.73,-761.41"/>
<polygon fill="#10f9f9" stroke="black" points="967.18,-762.08 964.9,-751.73 960.23,-761.24 967.18,-762.08"/>
</g>
<!-- src_pyVertexModel_util_utils -->
<g id="node22" class="node">
<title>src_pyVertexModel_util_utils</title><style>.edge>path:hover{stroke-width:8}</style>
<ellipse fill="#10f9f9" stroke="black" cx="1264.27" cy="-1245.45" rx="59.04" ry="39.6"/>
<text text-anchor="middle" x="1264.27" y="-1259.95" font-family="Helvetica,sans-Serif" font-size="10.00" fill="#000000">src.</text>
<text text-anchor="middle" x="1264.27" y="-1247.95" font-family="Helvetica,sans-Serif" font-size="10.00" fill="#000000">pyVertexModel.</text>
<text text-anchor="middle" x="1264.27" y="-1235.95" font-family="Helvetica,sans-Serif" font-size="10.00" fill="#000000">util.</text>
<text text-anchor="middle" x="1264.27" y="-1223.95" font-family="Helvetica,sans-Serif" font-size="10.00" fill="#000000">utils</text>
</g>
<!-- src_pyVertexModel_util_utils&#45;&gt;main_py -->
<g id="edge55" class="edge">
<title>src_pyVertexModel_util_utils&#45;&gt;main_py</title><style>.edge>path:hover{stroke-width:8}</style>
<path fill="none" stroke="black" d="M1405.27,-786.26C1401.11,-753.37 1406.06,-744.81 1405.27,-711.67"/>
</g>
<!-- src_pyVertexModel_util_utils&#45;&gt;src_pyVertexModel_algorithm_vertexModel -->
<g id="edge56" class="edge">
<title>src_pyVertexModel_util_utils&#45;&gt;src_pyVertexModel_algorithm_vertexModel</title><style>.edge>path:hover{stroke-width:8}</style>
<path fill="none" stroke="black" d="M1405.27,-977.06C1372.94,-913.39 1341.87,-914.23 1291.27,-863.86"/>
<path fill="none" stroke="black" d="M1465.27,-1168.85C1476.82,-1081.14 1445.32,-1057.94 1405.27,-979.06"/>
</g>
<!-- src_pyVertexModel_util_utils&#45;&gt;src_pyVertexModel_algorithm_vertexModelVoronoiFromTimeImage -->
<g id="edge57" class="edge">
<title>src_pyVertexModel_util_utils&#45;&gt;src_pyVertexModel_algorithm_vertexModelVoronoiFromTimeImage</title><style>.edge>path:hover{stroke-width:8}</style>
<path fill="none" stroke="black" d="M1212.27,-557.47C1198.66,-542.54 1202.71,-533 1188.27,-518.87 1174.09,-505 1156.84,-492.65 1139.72,-482.18"/>
<polygon fill="#10f9f9" stroke="black" points="1141.93,-479.43 1131.54,-477.34 1138.36,-485.45 1141.93,-479.43"/>
<path fill="none" stroke="black" d="M1405.27,-977.06C1369.19,-900.81 1422.63,-869.81 1405.27,-787.26"/>
<path fill="none" stroke="black" d="M1405.27,-786.26C1393.14,-721.21 1256.83,-608.39 1212.27,-559.47"/>
</g>
<!-- src_pyVertexModel_util_utils&#45;&gt;src_pyVertexModel_analysis_analyse_simulation -->
<g id="edge58" class="edge">
<title>src_pyVertexModel_util_utils&#45;&gt;src_pyVertexModel_analysis_analyse_simulation</title><style>.edge>path:hover{stroke-width:8}</style>
<path fill="none" stroke="black" d="M1212.27,-557.47C1168.81,-504.04 1239.3,-454.91 1193.27,-403.68 1161.92,-368.79 1038.57,-347.89 954.77,-337.44"/>
<polygon fill="#10f9f9" stroke="black" points="955.33,-333.98 944.98,-336.25 954.48,-340.93 955.33,-333.98"/>
</g>
<!-- src_pyVertexModel_util_utils&#45;&gt;src_pyVertexModel_geometry_cell -->
<g id="edge59" class="edge">
<title>src_pyVertexModel_util_utils&#45;&gt;src_pyVertexModel_geometry_cell</title><style>.edge>path:hover{stroke-width:8}</style>
<path fill="none" stroke="black" d="M1215.27,-1092.25C1210.05,-1063.66 1191.36,-1037.52 1172.64,-1017.57"/>
<polygon fill="#10f9f9" stroke="black" points="1175.2,-1015.19 1165.71,-1010.5 1170.2,-1020.09 1175.2,-1015.19"/>
<path fill="none" stroke="black" d="M1248.88,-1206.91C1237.38,-1176.96 1222.46,-1133.65 1215.27,-1094.25"/>
</g>
<!-- src_pyVertexModel_util_utils&#45;&gt;src_pyVertexModel_geometry_face -->
<g id="edge60" class="edge">
<title>src_pyVertexModel_util_utils&#45;&gt;src_pyVertexModel_geometry_face</title><style>.edge>path:hover{stroke-width:8}</style>
<path fill="none" stroke="black" d="M1219.99,-1218.97C1175.18,-1193.19 1105.83,-1153.27 1057.69,-1125.57"/>
<polygon fill="#10f9f9" stroke="black" points="1059.48,-1122.57 1049.07,-1120.61 1055.99,-1128.63 1059.48,-1122.57"/>
</g>
<!-- src_pyVertexModel_util_utils&#45;&gt;src_pyVertexModel_geometry_geo -->
<g id="edge61" class="edge">
<title>src_pyVertexModel_util_utils&#45;&gt;src_pyVertexModel_geometry_geo</title><style>.edge>path:hover{stroke-width:8}</style>
<path fill="none" stroke="black" d="M1215.27,-1092.25C1199.95,-1044.33 1242.5,-1021.36 1215.27,-979.06"/>
<path fill="none" stroke="black" d="M1215.27,-977.06C1204.92,-960.98 1207.04,-954.26 1196.27,-938.46 1188.24,-926.69 1178.46,-914.88 1168.85,-904.23"/>
<polygon fill="#10f9f9" stroke="black" points="1171.59,-902.05 1162.23,-897.08 1166.45,-906.8 1171.59,-902.05"/>
</g>
<!-- src_pyVertexModel_util_utils&#45;&gt;src_pyVertexModel_mesh_remodelling_remodelling -->
<g id="edge62" class="edge">
<title>src_pyVertexModel_util_utils&#45;&gt;src_pyVertexModel_mesh_remodelling_remodelling</title><style>.edge>path:hover{stroke-width:8}</style>
<path fill="none" stroke="black" d="M1465.27,-1168.85C1476.61,-1082.34 1334.99,-1193.52 1272.27,-1132.85 1208.67,-1071.33 1251.02,-1024.23 1229.27,-938.46 1216.18,-886.84 1230.17,-864.33 1196.27,-823.26 1185.3,-809.98 1101.17,-769.29 1040.2,-740.9"/>
<polygon fill="#10f9f9" stroke="black" points="1041.79,-737.78 1031.25,-736.75 1038.84,-744.13 1041.79,-737.78"/>
<path fill="none" stroke="black" d="M1321.41,-1234.31C1379.41,-1222.35 1461.27,-1200.2 1465.27,-1169.85"/>
</g>
</g>
</svg>
